<?xml version="1.0" ?>
<!-- Uploaded to: SVG Repo, www.svgrepo.com, Generator: SVG Repo Mixer Tools -->
<svg width="800px" height="800px" viewBox="0 0 64 64" id="Layer_1" version="1.1" xml:space="preserve" xmlns="http://www.w3.org/2000/svg" xmlns:xlink="http://www.w3.org/1999/xlink">
<style type="text/css">
	.st0{fill:#1379C2;}
	.st1{fill:#358DCC;}
	.st2{fill-rule:evenodd;clip-rule:evenodd;fill:#3FB754;}
	.st3{fill-rule:evenodd;clip-rule:evenodd;fill:#CCCCCC;}
	.st4{fill:#5D5E61;}
	.st5{fill:#924F34;}
	.st6{fill:#E6E6E6;}
	.st7{fill:#0F8C7E;}
	.st8{fill-rule:evenodd;clip-rule:evenodd;fill:#E6E6E6;}
	.st9{fill-rule:evenodd;clip-rule:evenodd;fill:#E6E6E6;stroke:#000000;stroke-width:0.4799;stroke-miterlimit:2.6131;}
	.st10{fill:#823B1F;}
	.st11{fill:#FFC810;}
	.st12{fill-rule:evenodd;clip-rule:evenodd;fill:#924F34;}
	.st13{fill:#E04538;}
	.st14{fill-rule:evenodd;clip-rule:evenodd;}
	.st15{fill-rule:evenodd;clip-rule:evenodd;fill:#FFC810;}
	.st16{fill-rule:evenodd;clip-rule:evenodd;fill:#E4E7E9;}
	.st17{fill:#3FB754;}
	.st18{fill-rule:evenodd;clip-rule:evenodd;fill:#5D5E61;}
	.st19{fill:#C92B1C;}
	.st20{fill:#666666;}
	.st21{fill:#FFD95E;}
	.st22{fill:#4D4D4D;}
	.st23{fill-rule:evenodd;clip-rule:evenodd;fill:#0F8C7E;}
	.st24{fill:#999999;}
	.st25{fill:#CCCCCC;}
	.st26{fill-rule:evenodd;clip-rule:evenodd;fill:#358DCC;}
	.st27{fill-rule:evenodd;clip-rule:evenodd;fill:#823B1F;}
</style>
<g>
<path class="st0" d="M6.9,31.8c0.4-0.5,1-0.8,1.7-0.8c0.5,0,1,0.2,1.4,0.5l6.3,4.1c1,0.7,1.3,2.1,0.7,3.1c-0.7,1-2.1,1.3-3.1,0.7   l-2.5-1.6c1.9,8.9,9.4,15.6,18.4,16.6V27.2h-8.1c-1.2,0-2.2-1-2.2-2.2c0-1.2,1-2.3,2.2-2.3h8.1v-4.1c-2.7-1-4.6-3.6-4.6-6.5v0   c0-3.8,3.1-6.9,6.9-6.9h0c3.8,0,6.9,3.1,6.9,6.9v0c0,2.9-1.9,5.5-4.6,6.5v4.1h8.1c1.2,0,2.2,1,2.2,2.3c0,1.2-1,2.2-2.2,2.2h-8.1   v27.1c9.1-1,16.5-7.7,18.4-16.6l-2.5,1.6c-1,0.7-2.4,0.4-3.1-0.7c-0.7-1-0.4-2.4,0.7-3.1l6.3-4.1c0.4-0.3,0.9-0.5,1.4-0.5   c0.7,0,1.3,0.3,1.7,0.8l5.3,5.4c0.9,0.9,0.9,2.3,0,3.2c-0.9,0.9-2.3,0.9-3.2,0l-2-2.1c-5.6,28.1-45.1,26.4-50.3,0l-2,2.1   c-0.9,0.9-2.3,0.9-3.2,0c-0.9-0.9-0.9-2.3,0-3.2L6.9,31.8L6.9,31.8z M32,9.8L32,9.8c-1.3,0-2.4,1.1-2.4,2.4v0   c0,1.3,1.1,2.4,2.4,2.4h0c1.3,0,2.4-1.1,2.4-2.4v0C34.4,10.8,33.3,9.8,32,9.8L32,9.8z"/>
<path class="st1" d="M6.9,31.8c0.4-0.5,1-0.8,1.7-0.8c0.5,0,1,0.2,1.4,0.5l6.3,4.1c1,0.7,1.3,2.1,0.7,3.1c-0.7,1-2.1,1.3-3.1,0.7   l-2.5-1.6c1.9,8.9,9.4,15.6,18.4,16.6V27.2h-8.1c-1.2,0-2.2-1-2.2-2.2c0-1.2,1-2.3,2.2-2.3h8.1v-4.1c-2.7-1-4.6-3.6-4.6-6.5v0   c0-3.8,3.1-6.9,6.9-6.9h0h0v4.5h0h0c-1.3,0-2.4,1.1-2.4,2.4v0c0,1.3,1.1,2.4,2.4,2.4h0h0v44.2C20.7,58.6,9.4,51.5,6.8,38.3l-2,2.1   c-0.9,0.9-2.3,0.9-3.2,0c-0.9-0.9-0.9-2.3,0-3.2L6.9,31.8L6.9,31.8z"/>
<path d="M6.2,31.2c0.6-0.7,1.5-1.1,2.4-1.1c0.7,0,1.4,0.2,1.9,0.6l6.2,4.1c1.5,1,1.9,3,0.9,4.4c-1,1.5-3,1.9-4.4,0.9l-0.3-0.2   c2.4,7,8.5,12.1,15.8,13.3v-25h-7.1c-1.8,0-3.2-1.4-3.2-3.2c0-1.8,1.4-3.2,3.2-3.2h7.1v-2.5c-2.8-1.3-4.6-4.1-4.6-7.1v0   c0-4.3,3.5-7.8,7.8-7.8h0c4.3,0,7.8,3.5,7.8,7.8v0c0,3.1-1.8,5.9-4.6,7.1v2.5h7.1c1.8,0,3.2,1.4,3.2,3.2c0,1.8-1.4,3.2-3.2,3.2   h-7.1v25c7.3-1.2,13.4-6.3,15.9-13.3l-0.3,0.2c-0.7,0.5-1.6,0.6-2.4,0.4c-0.8-0.2-1.5-0.6-2-1.4c-0.5-0.7-0.6-1.6-0.4-2.4   c0.2-0.8,0.6-1.5,1.4-2l6.2-4.1c0.3-0.2,0.6-0.4,0.9-0.5h0c0.3-0.1,0.7-0.2,1-0.2c0.5,0,0.9,0.1,1.4,0.3l0,0   c0.4,0.2,0.8,0.5,1.1,0.8l5.2,5.3l0,0l0,0l0,0c0.6,0.6,0.9,1.5,0.9,2.3c0,0.8-0.3,1.6-1,2.3l0,0v0l0,0c-0.6,0.6-1.5,0.9-2.3,0.9   c-0.8,0-1.6-0.3-2.3-1l-0.8-0.8c-3.1,12.1-13.2,19.6-25.5,19.5C20.1,59.6,9.4,52.2,6.3,40.2L5.5,41c-1.2,1.3-3.3,1.3-4.5,0l0,0   c-1.3-1.2-1.3-3.3,0-4.5l0,0l0,0l0,0L6.2,31.2L6.2,31.2z M7.6,32.5l-5.3,5.4l0,0l0,0l0,0c-0.5,0.5-0.5,1.3,0,1.8   c0.5,0.5,1.3,0.5,1.8,0l2-2.1l1.3-1.3l0.4,1.8C10.1,50,20.3,57.7,32.2,57.8c12.2,0.1,21.6-7.6,24-19.7l0.4-1.8l1.3,1.3l2,2.1   c0.2,0.3,0.6,0.4,0.9,0.4c0.3,0,0.6-0.1,0.9-0.4l0,0l0,0l0,0c0.3-0.2,0.4-0.6,0.4-0.9c0-0.3-0.1-0.6-0.4-0.9l0,0l0,0l0,0l-5.3-5.4   l0-0.1c-0.1-0.1-0.3-0.3-0.4-0.3l0,0c-0.2-0.1-0.3-0.1-0.5-0.1c-0.1,0-0.3,0-0.4,0.1v0c-0.1,0-0.3,0.1-0.4,0.2l-0.1,0l-6.3,4.1   c-0.3,0.2-0.5,0.5-0.6,0.8c-0.1,0.3,0,0.7,0.2,1c0.2,0.3,0.5,0.5,0.8,0.5c0.3,0.1,0.7,0,1-0.2l2.5-1.6l1.5,1   c-2,9.3-9.8,16.4-19.3,17.4l-1.1,0.1v-1.1V27.2v-1h1h8.1c0.7,0,1.3-0.6,1.3-1.3c0-0.7-0.6-1.3-1.3-1.3h-8.1h-1v-1v-4.8   c2.7-0.9,4.6-2.7,4.6-5.8v0c0-3.2-2.6-5.9-5.9-5.9h0c-3.2,0-5.9,2.6-5.9,5.9v0c0,3.1,1.9,4.9,4.6,5.8v4.8v1h-1h-8.1   c-0.7,0-1.3,0.6-1.3,1.3c0,0.7,0.6,1.3,1.3,1.3h8.1h1v1v27.1v1.1l-1.1-0.1c-9.5-1-17.3-8-19.3-17.4l1.5-1l2.5,1.6   c0.6,0.4,1.4,0.2,1.8-0.4c0.4-0.6,0.2-1.4-0.4-1.8l-6.3-4.1C9.2,32.1,8.9,32,8.6,32C8.2,32,7.9,32.2,7.6,32.5L7.6,32.5z M32,10.8   L32,10.8c-0.8,0-1.4,0.6-1.4,1.4v0c0,0.8,0.6,1.4,1.4,1.4h0c0.8,0,1.4-0.6,1.4-1.4C33.4,11.4,32.8,10.8,32,10.8L32,10.8z M32,8.8   L32,8.8c1.8,0,3.3,1.5,3.3,3.3v0c0,1.8-1.5,3.3-3.3,3.3h0c-1.8,0-3.3-1.5-3.3-3.3v0C28.7,10.3,30.2,8.8,32,8.8L32,8.8z"/>
</g>
</svg>