<svg width="0" height="0" className="hidden">
  <symbol id="lighthouse" viewBox="0 0 480.006 480.006">
    <path d="M472.006,472.003h-304v-16c0-8.84,7.16-16,16-16h272c8.84,0,16,7.16,16,16V472.003z"/>
    <path d="M336.006,112.003h-128v-16c0-8.84,7.16-16,16-16h96c8.84,0,16,7.16,16,16V112.003z"/>
    <path d="M368.006,144.003h-192v-16c0-8.84,7.16-16,16-16h160c8.84,0,16,7.16,16,16V144.003z"/>
    <polygon points="456.006,352.003 352.006,352.003 344.006,288.003 424.006,288.003"/>
    <polygon points="456.006,440.003 360.006,440.003 352.006,352.003 456.006,352.003"/>
    <path d="M424.006,440.003h-32v-40c0-8.84,7.16-16,16-16l0,0c8.84,0,16,7.16,16,16V440.003z"/>
    <path d="M320.006,80.003h-96V48.971c0-10.864,4.312-21.28,12-28.96v-0.008c7.68-7.68,18.096-12,28.96-12h14.064c10.864,0,21.28,4.312,28.96,12h0.016c7.68,7.68,12,18.096,12,28.96V80.003z"/>
    <rect x="200.006" y="144.003" width="144" height="64"/>
    <polygon points="184.006,440.003 360.006,440.003 352.43,368.003 191.582,368.003"/>
    <polygon points="200.006,288.003 191.582,368.003 352.43,368.003 344.006,288.003"/>
    <rect x="200.006" y="208.003" width="144" height="80"/>
    <path d="M296.006,440.003h-48v-48c0-13.256,10.744-24,24-24l0,0c13.256,0,24,10.744,24,24V440.003z"/>
  </symbol>

  <symbol id="anchor" viewBox="0 0 64 64">
    <path d="M6.9,31.8c0.4-0.5,1-0.8,1.7-0.8c0.5,0,1,0.2,1.4,0.5l6.3,4.1c1,0.7,1.3,2.1,0.7,3.1c-0.7,1-2.1,1.3-3.1,0.7l-2.5-1.6c1.9,8.9,9.4,15.6,18.4,16.6V27.2h-8.1c-1.2,0-2.2-1-2.2-2.2c0-1.2,1-2.3,2.2-2.3h8.1v-4.1c-2.7-1-4.6-3.6-4.6-6.5v0c0-3.8,3.1-6.9,6.9-6.9h0c3.8,0,6.9,3.1,6.9,6.9v0c0,2.9-1.9,5.5-4.6,6.5v4.1h8.1c1.2,0,2.2,1,2.2,2.3c0,1.2-1,2.2-2.2,2.2h-8.1v27.1c9.1-1,16.5-7.7,18.4-16.6l-2.5,1.6c-1,0.7-2.4,0.4-3.1-0.7c-0.7-1-0.4-2.4,0.7-3.1l6.3-4.1c0.4-0.3,0.9-0.5,1.4-0.5c0.7,0,1.3,0.3,1.7,0.8l5.3,5.4c0.9,0.9,0.9,2.3,0,3.2c-0.9,0.9-2.3,0.9-3.2,0l-2-2.1c-5.6,28.1-45.1,26.4-50.3,0l-2,2.1c-0.9,0.9-2.3,0.9-3.2,0c-0.9-0.9-0.9-2.3,0-3.2L6.9,31.8L6.9,31.8z M32,9.8L32,9.8c-1.3,0-2.4,1.1-2.4,2.4v0c0,1.3,1.1,2.4,2.4,2.4h0c1.3,0,2.4-1.1,2.4-2.4v0C34.4,10.8,33.3,9.8,32,9.8L32,9.8z"/>
  </symbol>

  <symbol id="watermelon" viewBox="0 0 52.976 52.976">
    <path d="M44.558,0.755L43.852,0L18.745,25.107l1.509,5.028c0.065,0.608-0.37,1.236-1.014,1.446l-1.604,0.524l-0.478,1.479c-0.334,1.036-1.051,1.773-1.964,2.065h-0.001c-0.327,0-1.297-0.634-1.817-0.975c-1.033-0.676-1.929-1.259-2.768-1.144l-0.333,0.045L0,43.852l0.754,0.707c6.002,5.62,13.595,8.417,21.179,8.417c7.924,0,15.838-3.053,21.914-9.129C55.738,31.955,56.051,13.027,44.558,0.755z M12.282,36.348c1.225,0.8,2.385,1.555,3.453,1.221c1.583-0.494,2.796-1.723,3.328-3.371l0.163-0.509l0.635-0.207c1.6-0.523,2.614-2.121,2.36-3.717l-1.217-4.089L38.543,8.138c3.683,3.677,5.679,8.246,5.786,13.268c0.123,5.743-2.373,11.603-6.847,16.077s-10.327,6.979-16.077,6.847c-5.022-0.107-9.591-2.104-13.268-5.786l2.931-2.931C11.413,35.78,11.936,36.122,12.282,36.348z M42.433,42.432c-10.88,10.879-28.055,11.397-39.545,1.36l3.855-3.855c4.01,3.999,9.153,6.275,14.62,6.391c0.149,0.003,0.298,0.005,0.447,0.005c6.141,0,12.345-2.695,17.087-7.438c4.857-4.857,7.566-11.249,7.433-17.534c-0.117-5.466-2.392-10.61-6.392-14.62l3.855-3.855C53.83,14.378,53.312,31.553,42.433,42.432z"/>
    <circle cx="5.938" cy="18.422" r="1.5"/>
    <circle cx="17.938" cy="40.422" r="1.5"/>
    <circle cx="27.406" cy="27.053" r="1.5"/>
    <circle cx="32.356" cy="22.103" r="1.5"/>
    <circle cx="29.527" cy="39.074" r="1.5"/>
    <circle cx="34.477" cy="34.124" r="1.5"/>
    <circle cx="39.427" cy="29.174" r="1.5"/>
    <circle cx="37.306" cy="17.153" r="1.5"/>
    <circle cx="23.871" cy="37.659" r="1.5"/>
    <circle cx="28.938" cy="32.422" r="1.5"/>
    <circle cx="33.938" cy="27.422" r="1.5"/>
    <circle cx="8.938" cy="28.422" r="1.5"/>
    <circle cx="14.938" cy="20.422" r="1.5"/>
    <circle cx="38.72" cy="22.81" r="1.5"/>
  </symbol>

  <symbol id="waterfall" viewBox="0 0 512 512">
    <circle cx="256" cy="256" r="256"/>
    <path d="M230.667,220c-14,0-34.667-4.532-48-16.266C169.333,192,148,178.667,143.333,178.667c-4.667,0-18.167,10.667-28.417,13.333s-17.583,4.667-28.25,7.333C76,202,55.333,210.667,55.333,210.667s0.49,10.03,0,13.667c-0.49,3.636,59.333,10.333,87.667,7C171.333,228,230.667,220,230.667,220z"/>
    <path d="M476.333,196.333c-17-5.5-25-9-41.5-3s-39,15.653-53.5,16.077c-14.5,0.423-68.167,14.923-68.167,14.923l173.667-2.5L476.333,196.333z"/>
    <rect x="60.058" y="220" width="405.942" height="92"/>
    <path d="M466,220H65.2c-2.119,1.258-3.956,2.457-5.142,3.43v2.327c3.276,0.767,11.787-0.11,11.787-0.11c6.905,0,7.455,11.103,13.655,11.103c4.75,0,5.755-5.25,11.75-5.25c4.798,0,2,18.5,8.75,18.5c3.409,0,8.583-11.46,11.333-4.126S118.514,264,123,264c5.75,0,8.333-28.667,12-22c3.667,6.667,7.892,7.886,9.5,0.25c2-9.5,5.5-17.25,8.834-7.917c3.333,9.333,3.76,21.667,8.167,21.667c3.312,0,7.167-23.333,10.5-18c3.333,5.333,6.333,30.333,8.667,22.667c2.333-7.667,8.667-35.333,12-28.667c3.333,6.667,6,4.667,10,1c4-3.667,6.333,19.667,9.333,16.667s8-22,11-17s9,31,11.667,27.333c2.667-3.667,5-30.667,9-26.333S247,245,253.333,245c2.667,0,10.333-21,12.667-14.333s5.159,27.01,9.667,27.01c3.604,0,2-28.01,9.667-28.01c5,0,5.245,15.333,10.333,15.333c3.667,0,9.667-23.667,11.667-16c2,7.667,1.333,47,6.333,47c4.638,0,5.667-48,9-44.333c3.333,3.667,7.667,4.333,11.333-1s3,21.062,7,18.031c4-3.031,4.667-23.031,9.667-17.698c5,5.333,7.986,18.545,11.554,18.545c6.546,0,4.195-15.628,9.71-15.628c7.403,0,5.736,38.536,10.917,38.536c5.819,0,7.818-46.453,13.818-40.12c6,6.333,6.001,15.667,10.334,15.667s7.666-23.333,10-11.667c2.334,11.667,4,30,10.666,15.667c6.668-14.333,5.875-13.199,8.438-8.766c1.699,2.938,18.643-10.807,29.896-20.425V220z"/>
    <path d="M0.116,260.571c0.31,17.638,2.397,34.833,6.103,51.429H120c0-20-33.556-36.667-43.532-64c-7.138-19.557-2.32-33.705-10.883-40c-16.225-11.927-31.423-21.483-55.375-23.555c-6.116,21.042-9.591,43.192-10.073,66.091L0.116,260.571z"/>
    <path d="M6.218,312C31.768,426.438,133.86,512,256,512s224.232-85.563,249.781-200H6.218z"/>
  </symbol>
  </svg>