<?xml version="1.0" encoding="iso-8859-1"?>
<!-- Uploaded to: SVG Repo, www.svgrepo.com, Generator: SVG Repo Mixer Tools -->
<!DOCTYPE svg PUBLIC "-//W3C//DTD SVG 1.1//EN" "http://www.w3.org/Graphics/SVG/1.1/DTD/svg11.dtd">
<svg fill="#000000" version="1.1" id="Capa_1" xmlns="http://www.w3.org/2000/svg" xmlns:xlink="http://www.w3.org/1999/xlink" 
	 width="800px" height="800px" viewBox="0 0 472.243 472.243"
	 xml:space="preserve">
<g>
	<g>
		<path d="M417.256,270.598c-2.225,0.014-4.458,0.214-6.681,0.508c0.06-0.432,0.071-0.886-0.021-1.376
			c-9.229-50.037-29.504-100.058-64.187-137.834c-31.432-34.235-77.083-69.702-126.263-66.3c-3.6,0.25-7.181,0.787-10.717,1.521
			c-2.112-13.187-4.429-26.34-7.017-39.443c4.92-4.625,5.775-11.84,2.291-18.422c-4.858-9.176-15.721-11.374-24.598-7.268
			c-8.721,4.032-10.484,14.328-4.766,21.58c-24.121,2.214-40.823,29.501-66.404,26.886c-4.284-0.438-5.002,5.44-2.02,7.454
			c11.771,7.943,24.68,12.444,38.729,14.179c13.76,1.698,27.781,0.444,41.57-0.407c0.277,1.656,0.544,3.309,0.791,4.957
			c-0.397,0.299-0.764,0.688-1.067,1.199c-12.483,21.029-31.89,37.125-43.784,58.487c-12.289,22.07-18.763,46.757-32.142,68.313
			c-21.232,34.212-54.554,71.736-48.906,114.964c-3.075,0.227-6.151,0.437-9.228,0.626c-0.206,0.013-0.389,0.058-0.578,0.094
			c-0.428-0.049-0.877-0.052-1.361,0.05c-4.086,0.844-9.952,2.067-11.199,6.785c-1.146,4.34,3.27,7.302,6.555,8.912
			c11.305,5.542,23.045,5.697,35.323,4.432c19.98-2.062,40.269-5.974,59.827-10.488c19.723-4.553,39.103-10.466,58.859-14.882
			c0.999,13.692,2.58,27.329,5.271,40.815c-22.601,1.54-45.304,1.406-67.89-0.521c-10.687-0.912-21.348-1.861-32.084-1.473
			c-9.128,0.332-19.002,1.514-26.979,6.26c-5.643,3.357-10.748,9.139-11.604,15.827c-0.822,6.438,2.899,11.36,7.934,14.622
			c-2.074,16.551,0.116,34.136,6.682,49.505c2.994,7.011,7.596,14.614,13.971,19.243c1.453,1.36,2.998,2.465,4.612,3.366
			c0.791,0.618,1.604,1.213,2.448,1.77c0.987,0.649,1.956,0.786,2.814,0.581c62.277,14.699,125.783,4.133,187.389-8.976
			c24.382-5.188,49.728-13.315,65.64-33.628c0.654-0.836,1.283-1.694,1.92-2.547c0.203-0.144,0.412-0.28,0.609-0.43
			c0.968-0.729,1.476-1.679,1.639-2.659c14.802-20.931,24.576-46.186,31.363-70.581c0.759-2.727,1.442-5.474,2.104-8.225
			c4.68-2.234,8.879-5.689,11.195-9.987c4.911-9.106-6.181-12.963-13.198-12.906c-11.087,0.09-22.263,4.693-32.487,8.504
			c-12.055,4.492-24.016,9.229-36.374,12.837c-27.249,7.955-55.934,11.92-84.104,15.65c-0.684-7.244-1.416-14.482-2.17-21.72
			c29.048-6.662,58.646-10.377,88.066-14.946c14.938-2.32,29.834-4.922,44.591-8.215c13.646-3.046,26.756-7.399,40.119-11.4
			c7.461-2.232,17.185-5.316,20.314-13.188C435.726,273.484,423.453,270.562,417.256,270.598z M211.138,74.933
			c0.141,0.088,0.303,0.152,0.51,0.152c7.008,0.003,13.916,0.152,20.734,1.964c1.248,0.331,1.777-1.598,0.531-1.929
			c-3.358-0.893-6.743-1.391-10.151-1.674c43.686-2.412,85.396,30.24,114.038,59.947c34.899,36.195,55.311,84.47,65.073,133.423
			c-3.946-7.177-8.146-14.212-12.362-21.237c-0.662-1.104-2.392-0.101-1.727,1.01c5.104,8.508,10.189,17.026,14.824,25.798
			c-0.188,0.028-0.373,0.059-0.56,0.087c-6.864-6.057-13.607-12.234-19.694-19.097c-0.857-0.967-2.268,0.453-1.414,1.414
			c5.466,6.16,11.461,11.771,17.598,17.235c-7.945-4.129-14.966-9.792-22.386-14.807c-1.072-0.725-2.071,1.009-1.011,1.728
			c7.158,4.838,13.924,10.214,21.487,14.319c-2.889,0.391-5.781,0.749-8.681,1.146c-15.928,2.175-31.662,5.827-47.27,9.626
			c-31.221,7.599-62.674,14.339-94.398,19.471c10.722-8.149,22.688-14.615,35.632-18.461c1.233-0.366,0.708-2.296-0.531-1.928
			c-11.196,3.326-21.644,8.573-31.23,15.149c7.907-7.64,15.479-15.593,25.002-21.322c1.104-0.664,0.099-2.395-1.011-1.728
			c-10.115,6.088-18.073,14.64-26.522,22.715c4.812-9.152,7.459-19.491,12.892-28.347c0.678-1.104-1.054-2.106-1.727-1.01
			c-6.154,10.029-8.732,21.956-14.922,31.909c1.05-4.119,1.256-8.607,1.539-12.572c0.608-8.539,0.433-17.123,1.264-25.647
			c1.071-10.996,3.819-21.845,4.877-32.89c1.094-11.418,0.814-22.865,0.254-34.304c-1.753-35.768-9.087-74.479-32.902-102.416
			c5.389,3.472,10.812,6.891,16.249,10.289c1.097,0.686,2.102-1.045,1.01-1.727c-8.013-5.009-16-10.053-23.88-15.266
			c-0.086-0.59-0.179-1.18-0.266-1.77c8.875,1.951,17.812,3.764,26.375,6.862c1.216,0.44,1.734-1.493,0.531-1.929
			c-8.765-3.172-17.92-4.994-27-7c-0.078-0.018-0.143-0.003-0.215-0.004c-0.05-0.338-0.102-0.676-0.151-1.014
			c7.71,0.125,15.389,0.912,23.101,0.982c1.29,0.012,1.289-1.988,0-2c-7.812-0.072-15.59-0.88-23.4-0.988
			c-0.201-1.354-0.4-2.712-0.607-4.066C210.806,74.995,210.972,74.967,211.138,74.933z M243.702,227.552
			c-0.86,11.054-3.347,21.777-4.793,32.73c-0.975,7.368-0.917,14.857-1.221,22.273c-0.217,5.277,0.065,12.25-2.039,17.567
			c-3.785-33.44-7.896-66.847-11.34-100.323c-2.964-28.819-4.862-57.702-8.377-86.478c-0.567-4.641-1.168-9.277-1.785-13.911
			c21.89,26.707,28.072,63.499,29.721,97.112C244.375,206.88,244.505,217.21,243.702,227.552z M197.389,21.093
			c-0.099,0.045-0.194,0.069-0.294,0.123c-0.637,0.344-1.286,0.633-1.942,0.873c0.407-2.471,1.559-4.795,3.305-6.59
			C198.966,17.407,198.721,19.393,197.389,21.093z M195.666,10.981c0.802,0.763,1.473,1.627,1.983,2.543
			c-2.594,2.385-4.217,5.627-4.578,9.146c-1.112,0.219-2.231,0.297-3.336,0.215C190.448,18.555,192.266,13.845,195.666,10.981z
			 M188.247,8.382c0.33-0.067,0.531-0.252,0.635-0.479c0.158,0.01,0.312,0.042,0.468,0.059c-3.014,3.023-4.952,8.635-5.87,12.541
			c-0.273-0.207-0.541-0.428-0.805-0.664c-0.11-0.098-0.207-0.201-0.312-0.303C181.573,15.437,184.062,9.241,188.247,8.382z
			 M183.163,9.398c0.027-0.017,0.054-0.028,0.08-0.046c-1.609,1.952-2.654,4.59-2.954,7.129
			C179.359,13.917,180.231,11.239,183.163,9.398z M122.175,57.382c2.859-0.727,5.645-1.74,8.365-2.947
			c-1.184,1.645-2.318,3.324-3.397,5.042C125.467,58.831,123.806,58.143,122.175,57.382z M129.046,60.19
			c1.664-2.627,3.461-5.163,5.367-7.62c1.729-0.893,3.426-1.86,5.105-2.858c-2.271,3.844-4.351,7.803-6.268,11.834
			C131.837,61.132,130.433,60.684,129.046,60.19z M135.202,62.086c2.211-4.615,4.621-9.144,7.309-13.497
			c0.169-0.273,0.188-0.541,0.112-0.771c1.413-0.889,2.815-1.787,4.198-2.698c1.125-0.74,2.262-1.499,3.41-2.261
			c-3.691,6.637-7.244,13.337-10.24,20.314C138.38,62.854,136.78,62.503,135.202,62.086z M144.128,63.872
			c-0.717-0.102-1.435-0.197-2.145-0.318c3.342-7.734,7.4-15.117,11.527-22.465c0.09-0.158,0.122-0.312,0.127-0.461
			c0.869-0.557,1.745-1.106,2.628-1.646C152.507,47.404,147.585,55.298,144.128,63.872z M148.613,64.386
			c-0.821-0.066-1.636-0.16-2.449-0.252c3.757-9.22,9.183-17.658,12.989-26.843c1.459-0.821,2.934-1.604,4.434-2.304
			c-0.629,5.092-4.273,10.5-6.537,14.646c-2.709,4.959-5.701,9.771-8.359,14.756C148.665,64.388,148.64,64.388,148.613,64.386z
			 M150.86,64.524c2.93-5.428,6.203-10.677,9.123-16.109c2.188-4.07,5.455-9.398,5.683-14.338c1.142-0.469,2.298-0.881,3.464-1.244
			c-3.904,10.901-9.226,21.293-13.892,31.896C153.778,64.683,152.319,64.616,150.86,64.524z M157.38,64.77
			c4.785-10.82,10.234-21.418,14.111-32.592c2.016-0.476,4.069-0.754,6.164-0.795c-4.256,11.587-11.06,22.166-16.151,33.413
			C160.129,64.802,158.755,64.796,157.38,64.77z M163.686,64.776c5.137-11.203,11.896-21.75,16.072-33.348
			c0.75,0.045,1.504,0.115,2.266,0.229c0.05,2.219,0.17,4.43,0.325,6.638c-4.455,9.114-10.272,17.589-15.281,26.397
			C165.94,64.724,164.813,64.761,163.686,64.776z M169.407,64.63c4.347-7.525,9.217-14.838,13.254-22.543
			c0.229,2.43,0.523,4.854,0.842,7.273c-3.11,5.095-6.521,10.002-9.688,15.064C172.346,64.495,170.877,64.577,169.407,64.63z
			 M176.241,64.311c2.523-3.972,5.173-7.863,7.684-11.84c0.215,1.482,0.449,2.961,0.687,4.44c-1.676,2.423-3.499,4.745-5.114,7.211
			C178.412,64.184,177.327,64.253,176.241,64.311z M182.003,63.977c0.995-1.441,2.039-2.848,3.068-4.266
			c0.228,1.35,0.453,2.7,0.694,4.049C184.513,63.838,183.257,63.904,182.003,63.977z M187.776,22.558
			c-0.853-0.213-1.691-0.508-2.498-0.924c0.885-3.99,3.086-10.937,6.489-13.101c0.829,0.306,1.608,0.72,2.335,1.204
			C190.528,12.928,188.52,17.833,187.776,22.558z M86.184,258.469c10.247-18.384,22.897-35.267,33.811-53.237
			c12.729-20.962,18.987-45.043,30.896-66.43c5.812-10.439,14.271-19.54,21.929-28.627c3.655-4.338,7.262-8.717,10.692-13.225
			c-5.826,13.928-13.375,27.03-21.727,39.629c-0.715,1.079,1.018,2.08,1.727,1.01c7.109-10.723,13.617-21.818,19.005-33.463
			c-2.103,8.521-3.739,17.161-5.833,25.693c-0.307,1.252,1.622,1.783,1.93,0.531c3.024-12.334,5.074-24.898,9-37
			c0.119-0.367,0.018-0.66-0.176-0.874c0.241-0.633,0.486-1.265,0.721-1.901c0.436-0.623,0.873-1.246,1.299-1.877
			c0.686,7.212,1.013,14.451,0.939,21.889c-0.275,28.32,1.584,56.541,3.59,84.791c0.951,13.399,2.499,26.739,3.256,40.152
			c0.798,14.126,1.029,28.277,1.38,42.419c0.141,5.663,0.313,11.33,0.536,16.994c-0.71-0.767-1.432-1.52-2.162-2.266
			c-3.669-8.278-7.848-16.3-12.484-24.1c-0.658-1.107-2.387-0.103-1.727,1.01c3.725,6.267,7.164,12.676,10.273,19.25
			c-4.406-4.129-9.082-7.969-13.905-11.618c-1.029-0.779-2.024,0.959-1.01,1.728c5.97,4.517,11.71,9.34,16.968,14.656
			c-5.658-2.053-11.358-3.975-17.197-5.483c-1.25-0.323-1.779,1.604-0.531,1.928c6.453,1.67,12.734,3.847,18.98,6.143
			c0.174,0.407,0.342,0.817,0.514,1.228c-20.562,6.701-42.804,8.354-63.892,12.728c-18.538,3.844-37.317,6.416-56.168,8.194
			c21.378-12.486,38.989-30.38,59.336-44.392c1.055-0.728,0.056-2.46-1.01-1.728c-18.874,12.997-35.397,29.331-54.751,41.595
			c17.224-14.707,30.042-34.114,44.963-51.023c0.85-0.963-0.559-2.383-1.414-1.414c-17.229,19.523-31.613,42.562-53.375,57.54
			c-0.224,0.02-0.446,0.042-0.67,0.061c20.067-22.499,32.258-50.772,52.459-73.187c0.861-0.955-0.549-2.374-1.414-1.414
			c-19.135,21.229-31.088,47.712-49.34,69.566c5.951-19.099,18.62-35.271,26.91-53.354c0.533-1.164-1.189-2.181-1.727-1.01
			c-8.471,18.479-21.432,34.976-27.326,54.571C68.087,294.478,76.82,275.267,86.184,258.469z M178.338,312.24
			c-1.008,0.262-2.017,0.521-3.023,0.783c0.03-0.023,0.058-0.054,0.088-0.076c0.431-0.332,0.661-0.854,0.358-1.368
			c-0.249-0.425-0.936-0.692-1.368-0.358c-1.009,0.778-1.796,1.72-2.56,2.719c-0.509,0.135-1.02,0.268-1.528,0.401l0.05-0.05
			c0.912-0.913-0.502-2.327-1.414-1.414c-0.732,0.732-1.473,1.496-2.046,2.367c-0.474,0.125-0.948,0.25-1.421,0.376
			c0.376-0.442,0.756-0.883,1.131-1.329c0.824-0.98-0.583-2.402-1.414-1.414c-0.997,1.187-2.036,2.332-2.929,3.594
			c-0.722,0.191-1.442,0.383-2.163,0.573c0.394-0.522,0.8-1.034,1.256-1.503c0.9-0.924-0.514-2.34-1.414-1.414
			c-1.039,1.066-1.83,2.335-2.75,3.5c-0.053,0.065-0.086,0.141-0.125,0.213c-0.698,0.184-1.396,0.368-2.094,0.55
			c0.359-0.507,0.715-1.017,1.039-1.551c0.671-1.105-1.059-2.11-1.727-1.01c-0.702,1.157-1.5,2.239-2.344,3.298
			c-0.014,0.018-0.02,0.038-0.033,0.056c-0.539,0.14-1.078,0.281-1.617,0.419c-1.295,0.33-2.592,0.643-3.889,0.954
			c0.982-1.086,2.047-2.098,3.203-3.015c1.01-0.801-0.415-2.207-1.414-1.414c-1.894,1.502-3.538,3.26-4.982,5.185
			c-1.217,0.281-2.434,0.565-3.65,0.836c0.9-1.062,1.816-2.111,2.797-3.105c0.906-0.919-0.508-2.333-1.414-1.414
			c-1.631,1.652-3.086,3.455-4.586,5.221c-1.082,0.231-2.162,0.463-3.244,0.688c0.703-0.867,1.453-1.695,2.244-2.494
			c0.908-0.917-0.506-2.331-1.414-1.414c-1.381,1.395-2.645,2.893-3.761,4.502c-1.165,0.235-2.33,0.474-3.497,0.702
			c0.549-0.604,1.097-1.21,1.672-1.79c0.908-0.916-0.505-2.331-1.414-1.414c-1.209,1.22-2.341,2.511-3.452,3.818
			c-0.927,0.178-1.851,0.36-2.778,0.534c0.809-1.039,1.664-2.041,2.645-2.938c0.953-0.873-0.465-2.283-1.414-1.414
			c-1.584,1.452-2.889,3.146-4.125,4.894c-1.182,0.219-2.361,0.436-3.543,0.649c0.193-0.21,0.381-0.425,0.582-0.629
			c0.906-0.919-0.508-2.334-1.414-1.414c-0.814,0.827-1.566,1.707-2.289,2.608c-1.404,0.253-2.81,0.505-4.215,0.756
			c0.461-0.463,0.941-0.905,1.466-1.294c1.024-0.759,0.028-2.495-1.01-1.728c-1.385,1.025-2.521,2.286-3.624,3.586
			c-1.012,0.182-2.023,0.361-3.035,0.542c-0.439,0.079-0.893,0.163-1.336,0.243c0.715-0.703,1.445-1.393,2.207-2.051
			c0.979-0.844-0.443-2.252-1.414-1.414c-1.467,1.266-2.828,2.634-4.121,4.073c-1.023,0.188-2.049,0.378-3.085,0.564
			c0.814-0.844,1.653-1.663,2.521-2.455c0.953-0.872-0.465-2.281-1.414-1.414c-1.523,1.394-2.98,2.854-4.308,4.435
			c-0.839,0.145-1.677,0.289-2.52,0.424c0.825-0.899,1.707-1.749,2.605-2.576c0.95-0.876-0.468-2.286-1.414-1.414
			c-1.496,1.378-2.923,2.828-4.159,4.438c-1.155,0.164-2.312,0.318-3.473,0.451c0.607-0.678,1.213-1.355,1.821-2.031
			c0.86-0.956-0.55-2.375-1.414-1.414c-1.119,1.243-2.237,2.488-3.351,3.737c-0.499,0.042-0.999,0.093-1.498,0.127
			c0.584-0.683,1.184-1.351,1.783-2.018c0.86-0.956-0.549-2.375-1.414-1.414c-1.039,1.156-2.048,2.335-3.014,3.552
			c-0.348,0.012-0.697,0.038-1.044,0.045c0.554-0.647,1.116-1.285,1.716-1.894c0.905-0.919-0.508-2.334-1.414-1.414
			c-1.029,1.044-1.967,2.167-2.895,3.3c-0.432-0.01-0.863-0.016-1.294-0.033c0.087-0.086,0.169-0.176,0.256-0.262
			c0.913-0.914-0.501-2.327-1.414-1.415c-0.495,0.494-0.981,0.995-1.464,1.5c-1.129-0.104-2.252-0.231-3.363-0.416
			c0.195-0.186,0.392-0.37,0.605-0.536c0.432-0.335,0.35-1.065,0-1.414c-0.421-0.423-0.983-0.334-1.414,0
			c-0.571,0.442-1.064,0.966-1.551,1.497c-0.498-0.112-0.997-0.237-1.496-0.358c0.293-0.405,0.583-0.812,0.861-1.229
			c0.72-1.074-1.014-2.074-1.727-1.01c-0.387,0.577-0.793,1.142-1.211,1.694c-2.511-0.701-4.988-1.559-7.309-2.695
			c-0.043-0.021-0.083-0.047-0.125-0.067c0.988-0.248,2.049-0.401,2.871-0.533c0.17,0.009,0.33,0.031,0.514,0.02
			c26.982-1.67,53.896-4.724,80.426-9.988c11.759-2.335,23.484-4.5,35.32-6.423c3.906-0.635,7.818-1.293,11.713-2.039
			C179.556,310.521,178.843,311.306,178.338,312.24z M184.143,310.221c-0.237,0.163-0.397,0.398-0.46,0.657
			c-0.736,0.187-1.474,0.362-2.209,0.551c0.127-0.129,0.252-0.259,0.381-0.388c0.532-0.532,0.266-1.225-0.224-1.536
			c1.568-0.31,3.133-0.636,4.692-0.98C185.569,309.055,184.903,309.699,184.143,310.221z M198.284,306.329
			c-0.277,0.42-0.543,0.848-0.855,1.241c-1.031,0.234-2.064,0.47-3.094,0.711c0.49-0.803-0.746-1.863-1.645-1.154
			c-1.019,0.803-2.096,1.526-3.137,2.3c-0.613,0.15-1.227,0.295-1.84,0.446c0.203-0.307,0.254-0.69,0.047-1.044
			c-0.148-0.254-0.428-0.42-0.723-0.473c4.24-0.952,8.445-2.048,12.578-3.395c0.019,0.354,0.041,0.71,0.062,1.063
			C199.247,305.775,198.638,305.794,198.284,306.329z M205.317,237.155c1.41-0.341,2.845-0.551,4.33-0.571
			c1.289-0.02,1.291-2.019,0-2c-1.51,0.021-2.982,0.215-4.431,0.538c-0.098-1.802-0.212-3.603-0.335-5.402
			c2.2-0.265,4.395-0.508,6.531-1.171c1.229-0.382,0.703-2.312-0.531-1.929c-2.008,0.623-4.074,0.876-6.146,1.124
			c-0.1-1.359-0.219-2.717-0.328-4.076c1.732-0.312,3.469-0.558,5.24-0.584c1.289-0.02,1.291-2.02,0-2
			c-1.822,0.027-3.615,0.274-5.4,0.59c-0.183-2.193-0.375-4.386-0.57-6.577c1.746-0.35,3.49-0.699,5.236-1.048
			c1.264-0.253,0.729-2.181-0.531-1.929c-1.627,0.326-3.255,0.65-4.883,0.977c-0.15-1.676-0.297-3.352-0.445-5.026
			c2.121-0.329,4.241-0.669,6.359-1.021c1.27-0.212,0.729-2.139-0.531-1.929c-2,0.333-4.002,0.655-6.004,0.967
			c-0.177-2.004-0.35-4.008-0.516-6.014c2.195-0.025,4.385-0.125,6.551-0.524c1.268-0.233,0.729-2.161-0.531-1.929
			c-2.037,0.376-4.107,0.445-6.176,0.459c-0.123-1.541-0.248-3.082-0.357-4.623c-0.006-0.084-0.012-0.167-0.018-0.25
			c2.025-0.228,4.066-0.344,6.082-0.657c1.271-0.198,0.73-2.124-0.531-1.929c-1.887,0.293-3.793,0.417-5.688,0.617
			c-0.157-2.218-0.31-4.436-0.463-6.652h5.917c1.289,0,1.289-2,0-2h-6.057c-0.08-1.167-0.154-2.334-0.233-3.5h4.29
			c1.289,0,1.289-2,0-2h-4.424c-0.086-1.297-0.166-2.592-0.25-3.889c1.555-0.101,3.117-0.111,4.674-0.111
			c1.289-0.001,1.289-2.001,0-2c-1.604,0-3.205,0.023-4.801,0.129c-0.076-1.209-0.147-2.42-0.221-3.629h3.521c1.289,0,1.289-2,0-2
			h-3.645c-0.097-1.625-0.188-3.249-0.278-4.873c1.469-0.106,2.943-0.127,4.423-0.127c1.289-0.001,1.289-2.001,0-2
			c-1.52,0-3.031,0.031-4.536,0.143c-0.094-1.725-0.183-3.447-0.268-5.172c2.197-0.047,4.385-0.17,6.569-0.507
			c1.271-0.196,0.73-2.123-0.531-1.929c-2.035,0.314-4.082,0.41-6.135,0.443c-0.088-1.861-0.158-3.725-0.236-5.588
			c2.035,0.318,4.078,0.58,6.137,0.609c1.291,0.018,1.289-1.982,0-2c-2.092-0.029-4.16-0.305-6.222-0.634
			c-0.058-1.46-0.101-2.921-0.151-4.381c2.059-0.032,4.103-0.145,6.139-0.521c1.268-0.234,0.729-2.161-0.531-1.929
			c-1.88,0.348-3.774,0.434-5.676,0.455c-0.047-1.489-0.084-2.979-0.123-4.469c1.941-0.693,3.877-1.399,5.83-2.058
			c1.216-0.409,0.694-2.342-0.531-1.929c-1.795,0.605-3.574,1.25-5.355,1.891c-0.035-1.516-0.045-3.031-0.07-4.547
			c1.605-0.479,3.32-0.604,4.957-0.915c1.266-0.241,0.729-2.169-0.531-1.929c-1.5,0.286-2.999,0.455-4.457,0.816
			c-0.029-2.338-0.051-4.677-0.059-7.016c1.678-0.477,3.34-1.008,5.047-1.372c1.262-0.27,0.727-2.197-0.531-1.929
			c-1.523,0.326-3.012,0.783-4.506,1.217c0.001-1.371,0.004-2.743,0.018-4.115c0.908-0.098,1.822-0.137,2.754-0.137
			c1.289-0.001,1.289-2.001,0-2c-0.926,0-1.84,0.035-2.748,0.125c0.011-1.527,0.006-3.048-0.014-4.564
			c1.351-0.148,2.701-0.293,4.027-0.597c1.258-0.288,0.725-2.216-0.531-1.929c-1.165,0.268-2.352,0.409-3.539,0.541
			c-0.03-1.434-0.077-2.864-0.135-4.292c0.716-0.308,1.453-0.569,2.205-0.82c1.217-0.406,0.695-2.339-0.531-1.929
			c-0.6,0.199-1.19,0.414-1.775,0.641c-0.041-0.824-0.109-1.646-0.16-2.471c0.988-0.246,1.978-0.494,2.967-0.741
			c1.251-0.312,0.721-2.241-0.531-1.929c-0.855,0.214-1.713,0.428-2.568,0.643c-0.096-1.326-0.214-2.65-0.335-3.975
			c1.25-0.551,2.448-1.219,3.674-1.84c1.15-0.584,0.138-2.309-1.01-1.727c-0.961,0.486-1.901,1.01-2.867,1.471
			c-0.108-1.061-0.228-2.121-0.353-3.182c1.303-0.377,2.578-0.834,3.729-1.562c1.086-0.688,0.083-2.42-1.01-1.727
			c-0.925,0.585-1.937,0.969-2.974,1.281c-0.23-1.793-0.496-3.589-0.78-5.387c0.919-0.393,1.862-0.73,2.764-1.168
			c1.159-0.564,0.146-2.289-1.01-1.727c-0.681,0.33-1.386,0.604-2.088,0.887c-0.081-0.472-0.15-0.943-0.235-1.416
			c-0.087-0.476-0.174-0.951-0.26-1.428c0.814-0.361,1.706-0.656,2.588-0.68c1.287-0.037,1.291-2.037,0-2
			c-1.014,0.027-2.008,0.299-2.953,0.674c-0.205-1.127-0.409-2.254-0.612-3.381c1.034-0.264,1.95-0.785,2.772-1.586
			c0.925-0.902-0.49-2.314-1.414-1.414c-0.527,0.514-1.08,0.846-1.711,1.031c-0.216-1.209-0.428-2.418-0.635-3.627
			c0.906-0.324,1.908-0.441,2.818-0.733c1.223-0.392,0.7-2.323-0.531-1.929c-0.863,0.277-1.754,0.436-2.617,0.69
			c-0.241-1.447-0.471-2.896-0.692-4.345c1.25-0.369,2.473-0.816,3.58-1.518c1.086-0.688,0.083-2.42-1.01-1.727
			c-0.895,0.566-1.87,0.943-2.87,1.252c-0.174-1.195-0.326-2.394-0.48-3.592c0.877-0.264,1.75-0.543,2.621-0.833
			c1.217-0.405,0.695-2.337-0.531-1.929c-0.779,0.26-1.561,0.51-2.344,0.75c-0.148-1.244-0.282-2.492-0.404-3.74
			c0.771-0.158,1.535-0.344,2.279-0.581c1.224-0.392,0.7-2.323-0.531-1.929c-0.631,0.201-1.273,0.363-1.92,0.504
			c-0.09-1.059-0.156-2.121-0.224-3.184c0.892-0.297,1.783-0.594,2.675-0.892c1.217-0.405,0.695-2.337-0.531-1.929
			c-0.754,0.251-1.506,0.502-2.26,0.754c-0.057-1.184-0.109-2.367-0.129-3.555c1.299,0.035,2.605-0.048,3.906-0.254
			c0.31,0.171,0.639,0.305,0.986,0.396c5.357,27.287,9.637,54.764,13.047,82.361c3.555,28.771,5.435,57.655,8.377,86.478
			c5.225,51.18,12.121,102.184,16.928,153.407c-5.979,0.77-11.973,1.407-17.976,1.944c2.79-1.745,5.46-3.688,8.391-5.205
			c1.146-0.594,0.134-2.318-1.01-1.728c-3.257,1.688-6.194,3.895-9.332,5.775c-0.229-1.148-0.44-2.3-0.653-3.45
			c2.723-1.251,5.385-2.617,7.995-4.099c1.121-0.637,0.114-2.364-1.01-1.728c-2.406,1.365-4.854,2.638-7.354,3.808
			c-0.232-1.317-0.451-2.638-0.664-3.956c2.096-0.512,4.162-1.141,6.289-1.523c1.268-0.228,0.729-2.155-0.531-1.928
			c-2.052,0.369-4.048,0.965-6.066,1.466c-0.264-1.707-0.506-3.416-0.738-5.126c2.114-0.796,4.196-1.677,6.336-2.412
			c1.213-0.416,0.691-2.348-0.531-1.928c-2.051,0.704-4.05,1.541-6.074,2.312c-0.249-1.922-0.467-3.848-0.682-5.772
			c2.387-0.786,4.758-1.61,7.026-2.712c1.16-0.562,0.146-2.286-1.01-1.727c-2.017,0.978-4.124,1.715-6.247,2.412
			c-0.221-2.087-0.422-4.176-0.607-6.268c2.359-0.57,4.655-1.351,6.864-2.419c1.161-0.562,0.146-2.284-1.01-1.727
			c-1.937,0.937-3.955,1.613-6.021,2.131c-0.172-2.042-0.326-4.085-0.471-6.13c1.771-0.51,3.543-1.008,5.262-1.674
			c1.189-0.46,0.673-2.396-0.531-1.928c-1.591,0.614-3.229,1.088-4.865,1.559c-0.139-2.088-0.251-4.179-0.366-6.27
			c2.173-0.806,4.402-1.46,6.502-2.463c1.163-0.556,0.147-2.278-1.01-1.727c-1.812,0.865-3.724,1.47-5.612,2.138
			c-0.104-2.031-0.197-4.063-0.284-6.097c2-0.876,4.015-1.718,5.906-2.814c1.114-0.646,0.108-2.375-1.01-1.727
			c-1.6,0.927-3.289,1.673-4.983,2.41c-0.068-1.731-0.123-3.464-0.184-5.195l4.438-0.888c1.264-0.252,0.729-2.181-0.531-1.929
			c-1.326,0.266-2.651,0.53-3.978,0.797c-0.047-1.434-0.081-2.864-0.125-4.298c1.229-0.257,2.44-0.61,3.634-1.07
			c1.19-0.459,0.674-2.394-0.531-1.929c-1.043,0.401-2.096,0.717-3.162,0.958c-0.046-1.626-0.1-3.252-0.141-4.878
			c1.789-0.329,3.59-0.609,5.334-1.151c1.228-0.381,0.703-2.312-0.531-1.929c-1.589,0.493-3.223,0.771-4.854,1.063
			c-0.039-1.609-0.08-3.218-0.119-4.826c1.479-0.357,3.027-0.467,4.504-0.81c1.256-0.291,0.724-2.22-0.531-1.929
			c-1.342,0.312-2.695,0.47-4.021,0.747c-0.039-1.595-0.082-3.188-0.124-4.782h5.411c1.289,0,1.289-2,0-2h-5.463
			c-0.035-1.286-0.074-2.572-0.111-3.858c1.32-0.399,2.691-0.62,4.074-0.642c1.289-0.021,1.291-2.021,0-2
			c-1.407,0.021-2.789,0.233-4.133,0.597c-0.041-1.364-0.096-2.728-0.143-4.091c1.578-0.271,3.162-0.481,4.775-0.506
			c1.289-0.021,1.291-2.021,0-2c-1.633,0.023-3.242,0.229-4.845,0.496c-0.049-1.361-0.104-2.724-0.158-4.086
			c1.26-0.075,2.514-0.209,3.769-0.446c1.267-0.239,0.729-2.167-0.531-1.929c-1.104,0.209-2.207,0.323-3.314,0.389
			C205.493,240.724,205.406,238.938,205.317,237.155z M292.521,448.032c-60.926,13.716-125.111,23.991-186.754,8.953
			c-2.457-1.754-4.621-3.863-6.539-6.213c20.428,2.476,41.094,1.462,61.625,0.371c25.584-1.356,51.237-1.517,76.776-3.676
			c23.428-1.979,46.893-4.878,69.758-10.459c10.637-2.596,20.903-6.319,31.44-9.22c1.375-0.379,2.814-0.747,4.287-1.128
			C329.021,438.326,310.894,443.896,292.521,448.032z M355.478,413.157c-0.199,0.292-0.407,0.572-0.611,0.858
			c-5.707,3.354-13.229,4.7-19.371,6.392c-10.135,2.789-20.02,6.33-30.234,8.889c-22.756,5.699-46.203,8.361-69.54,10.334
			c-24.277,2.053-48.677,2.125-72.996,3.415c-22.99,1.22-46.344,2.693-69.167-1.119c-2.58-5.036-4.513-10.44-6.052-15.529
			c-0.881-2.91-1.673-5.928-2.329-9.003c51.207-0.341,101.747-8.812,152.724-12.5c25.562-1.851,51.154-3.308,76.655-5.921
			c19.348-1.981,38.566-5.052,56.364-12.846C366.452,395.537,361.335,404.612,355.478,413.157z M375.875,374.933
			c-0.301,0.084-0.604,0.199-0.914,0.365c-19.915,10.723-42.147,13.853-64.337,16.073c-25.5,2.553-51.101,3.936-76.655,5.808
			c-50.125,3.674-99.764,12.035-150.138,12.23c-0.844-6.854-0.85-13.809,0.501-20.394c0.735-0.112,1.331-0.417,1.811-0.825
			c21.748-8.062,45.974-4.794,68.631-3.708c25.731,1.231,51.931-0.71,77.517-3.388c26.724-2.795,53.176-7.788,79.062-14.985
			c25.49-7.088,50.397-16.067,75.544-24.254C383.947,353.045,380.303,364.154,375.875,374.933z M239.726,360.975
			c0.744,1.222,1.517,2.425,2.31,3.614c0.712,1.067,2.444,0.067,1.727-1.01c-0.764-1.146-1.507-2.306-2.226-3.479
			c1.077-0.15,2.155-0.312,3.231-0.468c1.037,1.464,2.062,2.938,3.018,4.457c0.686,1.088,2.416,0.085,1.727-1.01
			c-0.807-1.281-1.663-2.528-2.53-3.768c0.907-0.135,1.814-0.275,2.725-0.41c0.888,1.35,1.886,2.625,2.83,3.938
			c0.746,1.036,2.481,0.039,1.727-1.01c-0.784-1.09-1.604-2.155-2.37-3.257c0.788-0.119,1.576-0.24,2.364-0.359
			c1.019,1.338,1.824,2.818,2.429,4.387c0.458,1.19,2.394,0.675,1.93-0.53c-0.575-1.491-1.285-2.883-2.157-4.189l2.775-0.422
			c0.709,1.354,1.511,2.629,2.46,3.834c0.798,1.013,2.202-0.413,1.413-1.414c-0.677-0.859-1.257-1.783-1.782-2.738
			c1.043-0.157,2.086-0.315,3.129-0.476c0.729,1.443,1.492,2.845,2.49,4.128c0.792,1.017,2.195-0.409,1.413-1.414
			c-0.725-0.932-1.296-1.975-1.832-3.029c0.631-0.096,1.261-0.19,1.891-0.286c1.058,1.209,1.748,2.688,2.622,4.027
			c0.701,1.075,2.434,0.074,1.727-1.01c-0.722-1.107-1.337-2.281-2.088-3.363c1.095-0.166,2.189-0.337,3.284-0.506
			c0.762,1.677,1.664,3.28,2.577,4.879c0.64,1.119,2.368,0.112,1.727-1.01c-0.786-1.377-1.562-2.758-2.253-4.186
			c0.839-0.131,1.678-0.267,2.518-0.399c0.99,1.705,2.025,3.385,3.01,5.095c0.643,1.117,2.371,0.11,1.727-1.01
			c-0.853-1.484-1.742-2.947-2.612-4.422c0.573-0.093,1.146-0.194,1.72-0.288c0.847,1.433,1.826,2.78,2.667,4.22
			c0.649,1.112,2.379,0.106,1.727-1.01c-0.712-1.219-1.523-2.371-2.271-3.564c0.319-0.054,0.64-0.11,0.96-0.165
			c0.023,0.079,0.036,0.157,0.086,0.239c0.659,1.087,1.418,2.118,2,3.25c0.59,1.147,2.314,0.135,1.727-1.01
			c-0.508-0.987-1.146-1.899-1.738-2.837c0.335-0.059,0.67-0.119,1.005-0.178c1.02,1.354,2.079,2.675,3.164,3.977
			c0.825,0.992,2.232-0.431,1.413-1.414c-0.809-0.971-1.602-1.954-2.377-2.951c0.504-0.089,1.006-0.184,1.509-0.272
			c0.938,1.014,1.841,2.061,2.705,3.139c0.808,1.006,2.213-0.419,1.413-1.414c-0.583-0.727-1.179-1.444-1.791-2.146
			c0.339-0.062,0.677-0.129,1.015-0.189c0.884,1.146,1.741,2.32,2.863,3.25c0.984,0.815,2.408-0.591,1.413-1.414
			c-0.793-0.656-1.449-1.439-2.081-2.248c1.191-0.225,2.38-0.472,3.569-0.706l2.599,3.118c0.826,0.992,2.232-0.431,1.413-1.414
			l-1.785-2.144c1.41-0.285,2.818-0.579,4.228-0.877c0.663,0.993,1.326,1.987,1.988,2.981c0.712,1.067,2.443,0.067,1.727-1.01
			l-1.618-2.427c0.87-0.189,1.739-0.386,2.607-0.581c0.66,1.037,1.42,2.006,2.19,2.97c0.806,1.008,2.211-0.418,1.413-1.414
			c-0.532-0.667-1.05-1.342-1.528-2.041c0.816-0.195,1.624-0.411,2.437-0.616c0.673,1.119,1.497,2.13,2.43,3.071
			c0.907,0.918,2.321-0.497,1.414-1.414c-0.678-0.685-1.271-1.403-1.793-2.176c1.007-0.267,2.005-0.547,3.005-0.826
			c1.188,1.461,2.337,2.956,3.468,4.464c0.764,1.02,2.502,0.023,1.727-1.01c-1.02-1.36-2.055-2.709-3.111-4.04
			c0.601-0.174,1.197-0.356,1.797-0.534c0.04,0.188,0.114,0.374,0.245,0.536c0.887,1.11,1.751,2.237,2.75,3.25
			c0.906,0.919,2.32-0.496,1.413-1.414c-0.905-0.918-1.699-1.932-2.501-2.938c1.195-0.364,2.382-0.756,3.571-1.135
			c0.77,1.21,1.601,2.375,2.517,3.487c0.819,0.996,2.228-0.427,1.413-1.414c-0.71-0.862-1.353-1.768-1.957-2.7
			c0.976-0.316,1.947-0.646,2.922-0.973c0.8,1.089,1.668,2.122,2.622,3.087c0.907,0.918,2.321-0.497,1.413-1.414
			c-0.729-0.738-1.39-1.529-2.02-2.344c1.14-0.387,2.276-0.79,3.415-1.186c0.656,1.035,1.33,2.055,2.19,2.942
			c0.897,0.928,2.312-0.487,1.414-1.414c-0.646-0.668-1.173-1.424-1.671-2.199c0.992-0.348,1.988-0.705,2.981-1.055
			c0.723,1.081,1.45,2.158,2.273,3.168c0.816,1,2.224-0.424,1.414-1.414c-0.634-0.777-1.201-1.603-1.758-2.438
			c1.229-0.436,2.46-0.87,3.689-1.306c0.836,1.732,1.643,3.48,2.498,5.204c0.572,1.155,2.298,0.143,1.727-1.01
			c-0.799-1.611-1.557-3.241-2.334-4.863c0.054-0.019,0.107-0.037,0.161-0.057c0.957-0.342,1.911-0.693,2.865-1.044
			c0.892,1.523,1.852,3.004,2.831,4.474c0.712,1.067,2.443,0.067,1.727-1.01c-0.912-1.37-1.804-2.752-2.645-4.167
			c1.17-0.435,2.34-0.871,3.509-1.309c0.723,1.261,1.402,2.545,2.314,3.688c0.807,1.008,2.212-0.417,1.414-1.414
			c-0.729-0.913-1.286-1.943-1.853-2.972c0.906-0.337,1.812-0.672,2.72-1.005c0.693,1.144,1.396,2.279,2.062,3.438
			c0.644,1.116,2.372,0.109,1.727-1.01c-0.604-1.053-1.241-2.085-1.872-3.121c0.77-0.276,1.541-0.54,2.312-0.812
			c0.563,1.09,1.156,2.162,1.833,3.191c0.704,1.073,2.438,0.072,1.727-1.01c-0.604-0.922-1.141-1.878-1.652-2.851
			c0.755-0.256,1.513-0.501,2.27-0.747c0.34,1.126,0.631,2.27,1.057,3.367c0.46,1.189,2.396,0.673,1.93-0.531
			c-0.436-1.123-0.73-2.291-1.079-3.441c0.999-0.312,2.002-0.607,3.009-0.896c0.141,1.288,0.194,2.586,0.392,3.869
			c0.195,1.271,2.122,0.729,1.93-0.531c-0.197-1.284-0.25-2.584-0.394-3.875c0.689-0.185,1.39-0.342,2.082-0.514
			c-0.12,0.963-0.153,1.929-0.154,2.904c0,1.29,2,1.29,2,0c0.001-1.084,0.017-2.166,0.216-3.234
			c0.012-0.064-0.004-0.118-0.003-0.178c1.396-0.312,2.8-0.541,4.206-0.708c-0.287,0.787-0.574,1.574-0.883,2.354
			c-0.475,1.201,1.46,1.717,1.93,0.531c0.401-1.02,0.771-2.052,1.153-3.078c1.084-0.063,2.172-0.1,3.269-0.062
			c0.307,0.01,0.614,0.039,0.922,0.075c-0.545,0.262-1.067,0.572-1.563,0.938c-0.438,0.322-0.654,0.86-0.357,1.368
			c0.254,0.433,0.928,0.683,1.368,0.357c0.928-0.682,1.883-1.156,3.011-1.398c0.276-0.061,0.455-0.206,0.569-0.386
			c0.052,0.025,0.106,0.044,0.158,0.069c-0.044,0.011-0.147,0.1-0.367,0.504c-0.608,1.129-1.56,2.212-2.698,3.203
			c-0.057-0.021-0.098-0.057-0.162-0.068c-1.247-0.254-2.487-0.52-3.767-0.536c-1.289-0.02-1.287,1.98,0,2
			c0.621,0.009,1.227,0.088,1.828,0.191c-0.794,0.521-1.631,0.986-2.479,1.402c-0.979-0.425-1.925-0.911-2.843-1.458
			c-1.111-0.661-2.116,1.068-1.011,1.727c0.459,0.272,0.93,0.518,1.398,0.761c-0.91,0.315-1.802,0.554-2.638,0.695
			c-0.897-0.312-1.81-0.587-2.74-0.782c-1.258-0.266-1.793,1.663-0.531,1.928c0.062,0.014,0.124,0.031,0.188,0.045
			c-0.172,0.161-0.334,0.33-0.475,0.516c-24.328,7.927-48.443,16.504-73.058,23.526c-26.354,7.521-53.343,12.554-80.594,15.404
			c-25.531,2.671-51.618,4.346-77.283,3.116c-23.814-1.143-49.288-4.355-71.911,5.154c-0.937,0.396-1.6,1.021-2.029,1.754
			c-0.202,0.059-0.396,0.139-0.583,0.23c-1.487-1.04-2.67-2.26-3.266-3.769c0.331,0.233,0.67,0.458,1.021,0.671
			c1.106,0.671,2.11-1.061,1.01-1.728c-0.896-0.543-1.692-1.148-2.406-1.88c0.052-0.509,0.152-1.041,0.321-1.604
			c0.184-0.609,0.434-1.194,0.732-1.757c0.888,0.991,1.762,1.993,2.484,3.108c0.698,1.077,2.431,0.076,1.727-1.01
			c-0.895-1.38-2.008-2.577-3.098-3.797c0.371-0.479,0.789-0.929,1.225-1.365c0.724,1.154,1.443,2.311,2.303,3.374
			c0.811,1.003,2.217-0.421,1.414-1.414c-0.836-1.034-1.521-2.18-2.221-3.312c0.613-0.498,1.26-0.951,1.914-1.386
			c0.898,1.496,1.757,3.017,2.893,4.362c0.832,0.987,2.24-0.437,1.414-1.414c-1.032-1.224-1.811-2.617-2.619-3.991
			c0.623-0.356,1.24-0.688,1.846-0.991c0.982,1.564,1.859,3.198,2.953,4.694c0.752,1.03,2.489,0.033,1.727-1.01
			c-1.052-1.438-1.905-3.004-2.845-4.516c0.812-0.325,1.655-0.602,2.513-0.852c0.82,1.648,1.71,3.264,2.605,4.876
			c0.626,1.127,2.354,0.119,1.727-1.01c-0.807-1.451-1.604-2.907-2.355-4.388c1.172-0.267,2.367-0.479,3.573-0.652
			c1.257,1.827,1.844,4.053,2.806,6.05c0.56,1.161,2.283,0.146,1.727-1.01c-0.853-1.771-1.443-3.626-2.379-5.309
			c1.426-0.153,2.85-0.266,4.25-0.355c0.847,2.396,1.62,4.817,2.551,7.185c0.467,1.187,2.402,0.67,1.93-0.531
			c-0.879-2.23-1.617-4.513-2.409-6.774c0.628-0.034,1.251-0.066,1.86-0.099c0.641-0.032,1.283-0.052,1.926-0.072
			c0.015,0.071,0.014,0.143,0.045,0.217c0.715,1.688,1.354,3.396,2.25,5c0.629,1.126,2.356,0.117,1.727-1.01
			c-0.764-1.367-1.343-2.812-1.939-4.255c1.051-0.016,2.104,0.002,3.156,0.013c0.033,0.155,0.093,0.31,0.213,0.454
			c1.479,1.787,2.408,3.946,3.344,6.048c0.523,1.177,2.246,0.158,1.727-1.01c-0.847-1.902-1.731-3.764-2.924-5.455
			c1.312,0.035,2.626,0.089,3.939,0.15c1.098,1.902,1.904,3.931,2.406,6.074c0.295,1.256,2.223,0.724,1.93-0.531
			c-0.441-1.881-1.109-3.702-1.983-5.423c1.435,0.083,2.864,0.19,4.295,0.292c0.006,0.056-0.007,0.104,0.009,0.162
			c0.579,2.188,1.588,4.184,3.008,5.941c0.811,1.004,2.217-0.421,1.414-1.414c-1.085-1.344-1.836-2.902-2.332-4.548
			c0.084,0.007,0.169,0.011,0.253,0.018c1.046,0.08,2.092,0.154,3.137,0.23c0.911,1.649,1.697,3.368,2.622,5.012
			c0.632,1.124,2.359,0.116,1.727-1.01c-0.705-1.255-1.329-2.554-1.99-3.832c1.336,0.094,2.667,0.169,4,0.256
			c0.564,1.158,1.045,2.35,1.412,3.597c0.365,1.234,2.295,0.709,1.93-0.531c-0.295-0.999-0.657-1.971-1.072-2.92
			c0.893,0.057,1.783,0.099,2.675,0.15c-0.021,0.246,0.039,0.506,0.226,0.742c0.879,1.115,1.614,2.332,2.344,3.548
			c0.662,1.104,2.393,0.099,1.727-1.01c-0.651-1.085-1.341-2.138-2.084-3.156c1.1,0.061,2.198,0.106,3.297,0.163
			c-0.072,0.228-0.072,0.484,0.061,0.753c0.777,1.57,1.473,3.18,2.25,4.75c0.572,1.155,2.297,0.142,1.727-1.01
			c-0.719-1.453-1.373-2.938-2.082-4.396c0.896,0.043,1.793,0.074,2.689,0.113c0.637,1.694,1.399,3.312,2.572,4.744
			c0.817,0.999,2.225-0.425,1.414-1.414c-0.798-0.975-1.359-2.084-1.824-3.238c1.062,0.043,2.123,0.074,3.184,0.112
			c0.756,1.621,1.449,3.272,2.32,4.838c0.627,1.126,2.355,0.118,1.727-1.01c-0.677-1.216-1.243-2.483-1.816-3.749
			c1.084,0.034,2.168,0.059,3.253,0.088c0.716,1.508,1.657,2.894,2.337,4.421c0.523,1.177,2.246,0.158,1.727-1.01
			c-0.516-1.161-1.187-2.238-1.795-3.351c0.639,0.016,1.277,0.022,1.916,0.034c1.187,2.001,2.031,4.182,3.402,6.075
			c0.748,1.034,2.484,0.037,1.727-1.01c-1.134-1.566-1.912-3.327-2.816-5.023c1.245,0.02,2.49,0.03,3.735,0.041
			c0.251,2.103,1.667,3.835,3.011,5.444c0.827,0.99,2.234-0.433,1.414-1.414c-1-1.198-2.095-2.479-2.381-4.018
			c1.067,0.005,2.135-0.009,3.203-0.01c1.097,1.367,2.091,2.811,3.107,4.238c0.741,1.041,2.477,0.044,1.727-1.01
			c-0.773-1.086-1.547-2.169-2.342-3.236c1.088-0.007,2.178-0.028,3.266-0.042c0.665,1.117,1.348,2.224,2.1,3.288
			c0.736,1.045,2.473,0.047,1.727-1.01c-0.53-0.753-1.023-1.526-1.506-2.309c0.938-0.016,1.875-0.042,2.812-0.062
			c0.739,1.294,1.479,2.587,2.218,3.881c0.64,1.119,2.367,0.111,1.727-1.01c-0.557-0.976-1.113-1.948-1.67-2.924
			c0.893-0.023,1.787-0.067,2.682-0.099c0.639,1.277,1.283,2.552,2.012,3.781c0.656,1.107,2.386,0.103,1.727-1.011
			c-0.551-0.931-1.051-1.889-1.541-2.852c1.318-0.051,2.637-0.112,3.955-0.173c0.006,0.016,0.002,0.028,0.008,0.045
			c0.651,1.599,1.445,3.077,2.508,4.441c0.792,1.017,2.197-0.41,1.414-1.414c-0.747-0.959-1.339-2.053-1.822-3.17
			c1.473-0.075,2.945-0.163,4.42-0.258c0.679,1.354,1.49,2.626,2.332,3.89c0.711,1.066,2.444,0.066,1.727-1.011
			c-0.554-0.83-1.094-1.667-1.596-2.523c0.914,0.051,1.869-0.202,2.668-0.709c0.041-0.003,0.082-0.007,0.122-0.01
			c0.729,1.099,1.303,2.286,1.829,3.503c0.511,1.181,2.232,0.161,1.727-1.011c-0.402-0.931-0.843-1.821-1.344-2.679
			c0.842-0.068,1.684-0.146,2.524-0.22c1.011,1.284,1.784,2.733,2.593,4.158c0.637,1.121,2.364,0.112,1.727-1.011
			c-0.646-1.138-1.284-2.275-2.01-3.355c0.836-0.078,1.672-0.161,2.508-0.245c0.777,1.49,1.598,2.956,2.525,4.361
			c0.707,1.07,2.439,0.069,1.727-1.011c-0.764-1.156-1.449-2.359-2.107-3.577c0.541-0.06,1.082-0.125,1.623-0.187
			c0.004,0.008,0.004,0.016,0.008,0.023c0.965,1.688,1.929,3.377,3,5c0.707,1.07,2.439,0.069,1.727-1.011
			c-0.914-1.386-1.747-2.819-2.572-4.261c1.097-0.128,2.191-0.271,3.287-0.405c0.021,0.06,0.023,0.116,0.059,0.177
			c0.889,1.543,1.875,3.045,2.398,4.761c0.377,1.229,2.307,0.705,1.93-0.531c-0.513-1.674-1.394-3.166-2.269-4.666
			c0.747-0.095,1.495-0.18,2.241-0.276c0.706,1.255,1.54,2.433,2.2,3.714c0.591,1.146,2.315,0.135,1.727-1.011
			c-0.403-0.783-0.875-1.527-1.343-2.274C238.877,361.263,239.32,361.152,239.726,360.975z M420.8,283.599
			c0.271-1.083,0.541-2.166,0.812-3.249c0.312-1.251-1.616-1.782-1.93-0.531c-0.422,1.688-0.844,3.372-1.265,5.06
			c-0.964,0.479-1.733,0.822-1.992,0.93c-0.902,0.377-1.816,0.737-2.732,1.094c0.686-1.251,1.155-2.628,1.419-4.051
			c0.231-1.261-1.694-1.799-1.93-0.531c-0.42,2.271-1.354,4.312-2.981,5.895c-2.366,0.853-4.761,1.657-7.173,2.421
			c1.378-1.624,2.142-3.687,2.584-5.783c0.265-1.258-1.663-1.793-1.93-0.53c-0.491,2.333-1.327,4.532-3.242,6.059
			c-0.425,0.338-0.415,0.781-0.191,1.123c-1.376,0.417-2.753,0.831-4.135,1.228c1.107-1.901,2.152-3.834,2.998-5.878
			c0.492-1.191-1.443-1.706-1.93-0.53c-1.042,2.521-2.462,4.863-3.86,7.197c-1.781,0.495-3.562,0.982-5.339,1.456
			c1.111-1.836,2.251-3.656,3.526-5.384c0.769-1.039-0.969-2.035-1.727-1.01c-1.65,2.233-3.072,4.621-4.5,7
			c-0.025,0.042-0.024,0.082-0.043,0.123c-1.135,0.299-2.27,0.597-3.396,0.892c0.849-1.247,1.491-2.644,2.165-4.005
			c0.57-1.152-1.153-2.166-1.727-1.01c-1.041,2.104-1.955,4.303-3.844,5.798c-0.039,0.031-0.067,0.063-0.101,0.097
			c-0.976,0.243-1.948,0.497-2.926,0.733c0.878-1.528,1.609-3.127,2.197-4.857c0.415-1.225-1.518-1.746-1.93-0.531
			c-0.738,2.18-1.712,4.165-3.006,6.025c-1.332,0.312-2.663,0.628-3.999,0.927c0.418-1.089,0.724-2.231,0.935-3.421
			c0.223-1.261-1.704-1.8-1.93-0.531c-0.282,1.598-0.718,3.11-1.429,4.494c-1.641,0.357-3.284,0.707-4.929,1.047
			c0.407-0.748,0.802-1.505,1.185-2.271c0.576-1.15-1.148-2.163-1.727-1.01c-0.647,1.296-1.32,2.569-2.062,3.805
			c-1.152,0.232-2.306,0.472-3.46,0.696c0.468-1.067,0.914-2.146,1.35-3.23c0.479-1.198-1.456-1.714-1.93-0.531
			c-0.57,1.427-1.163,2.835-1.814,4.218c-1.51,0.287-3.02,0.584-4.53,0.859c1.001-1.64,2.031-3.261,3.173-4.807
			c0.769-1.039-0.969-2.035-1.727-1.01c-1.485,2.012-2.785,4.146-4.072,6.29c-1.173,0.209-2.345,0.419-3.519,0.622
			c1.405-2.496,2.844-4.969,4.661-7.2c0.807-0.991-0.601-2.415-1.414-1.414c-2.282,2.803-4.018,5.921-5.787,9.051
			c-1.512,0.257-3.023,0.513-4.537,0.762c1.219-1.639,2.208-3.425,2.996-5.34c0.49-1.191-1.445-1.707-1.929-0.531
			c-0.971,2.358-2.321,4.516-4.073,6.365c-2.221,0.358-4.44,0.71-6.662,1.055c0.972-1.908,1.971-3.806,3.062-5.648
			c0.659-1.112-1.069-2.118-1.727-1.01c-1.355,2.289-2.57,4.653-3.763,7.03c-1.587,0.243-3.174,0.489-4.761,0.729
			c0.598-1.076,1.193-2.152,1.749-3.25c0.582-1.147-1.144-2.16-1.727-1.01c-0.794,1.565-1.669,3.09-2.51,4.631
			c-1.821,0.271-3.645,0.547-5.465,0.815c0.554-0.821,1.111-1.641,1.7-2.438c0.77-1.039-0.969-2.034-1.727-1.01
			c-0.926,1.252-1.782,2.551-2.65,3.843c-1.477,0.218-2.952,0.436-4.429,0.653c0.104-0.162,0.201-0.326,0.306-0.486
			c0.709-1.083-1.022-2.083-1.727-1.01c-0.404,0.617-0.788,1.248-1.17,1.879c-1.47,0.217-2.94,0.435-4.409,0.652
			c0.525-0.79,1.065-1.569,1.649-2.319c0.782-1.004-0.621-2.432-1.414-1.414c-1.026,1.315-1.928,2.72-2.829,4.121
			c-0.381,0.058-0.764,0.112-1.145,0.171c-1.647,0.248-3.294,0.517-4.939,0.771c0.405-0.578,0.835-1.14,1.327-1.648
			c0.896-0.929-0.518-2.343-1.414-1.414c-1.007,1.041-1.807,2.24-2.553,3.476c-1.965,0.31-3.932,0.604-5.896,0.921
			c0.963-1.59,2.156-3.028,3.018-4.685c0.596-1.144-1.131-2.154-1.727-1.01c-1.008,1.937-2.492,3.562-3.5,5.5
			c-0.104,0.199-0.118,0.391-0.1,0.571c-1.867,0.306-3.736,0.603-5.604,0.917c0.895-1.544,1.933-2.997,2.929-4.479
			c0.724-1.074-1.011-2.073-1.727-1.01c-1.214,1.807-2.503,3.559-3.5,5.5c-0.07,0.137-0.104,0.271-0.113,0.4
			c-2.107,0.363-4.217,0.729-6.322,1.109c0.693-0.993,1.279-2.069,1.765-3.24c0.492-1.19-1.443-1.706-1.93-0.531
			c-0.668,1.615-1.616,3.094-2.837,4.328c-1.651,0.307-3.307,0.602-4.957,0.919c1.105-1.445,2.171-2.922,3.121-4.477
			c0.675-1.104-1.055-2.107-1.727-1.01c-1.302,2.129-2.812,4.107-4.36,6.062c-2.057,0.408-4.11,0.826-6.163,1.258
			c1.595-1.802,3.251-3.543,5.095-5.106c0.983-0.836-0.438-2.244-1.414-1.414c-2.56,2.173-4.773,4.672-6.931,7.229
			c-1.143,0.249-2.287,0.49-3.429,0.747c1.19-1.252,2.543-2.35,3.771-3.562c0.921-0.906-0.495-2.32-1.414-1.414
			c-1.007,0.993-2.056,1.924-3.059,2.902c-0.257-2.417-0.511-4.833-0.777-7.247c31.715-4.721,63.125-11.214,94.327-18.558
			c15.675-3.688,31.283-7.609,47.133-10.499c7.615-1.389,15.516-1.663,23.066-3.194c3.702-0.753,7.399-1.483,11.157-1.896
			c2.915-0.321,8.676-1.3,11.236,0.685C425.295,280.554,423.146,282.227,420.8,283.599z"/>
	</g>
</g>
</svg>